<?xml version="1.0"?>
<svg width="346.70999" height="79.290001" xmlns="http://www.w3.org/2000/svg" xmlns:svg="http://www.w3.org/2000/svg" xmlns:xlink="http://www.w3.org/1999/xlink" version="1.0">
 <defs id="defs4">
  <g id="s">
   <g id="c">
    <path d="m0,0l0,1l0.5,0l-0.5,-1z" id="t" transform="matrix(0.9510565,0.309017,-0.309017,0.9510565,0,-1)"/>
    <use height="1052.36" id="use3302" transform="scale(-1,1)" width="744.09" x="0" xlink:href="#t" y="0"/>
   </g>
   <g id="a">
    <use height="1052.36" id="use3305" transform="matrix(0.309017,0.9510565,-0.9510565,0.309017,0,0)" width="744.09" x="0" xlink:href="#c" y="0"/>
    <use height="1052.36" id="use3307" transform="matrix(-0.809017,0.5877853,-0.5877853,-0.809017,0,0)" width="744.09" x="0" xlink:href="#c" y="0"/>
   </g>
   <use height="1052.36" id="use3309" transform="scale(-1,1)" width="744.09" x="0" xlink:href="#a" y="0"/>
  </g>
 </defs>
 <metadata id="metadata7">image/svg+xml</metadata>
 <g class="layer">
  <title>Layer 1</title>
  <g id="layer1" transform="translate(-5.5279208,-5.095195)">
   <rect fill="#ffffff" height="69.19" id="rect2221" ry="5.36" stroke="#000000" stroke-miterlimit="4" stroke-width="3.09" width="335.62" x="11.07" y="10.14"/>
   <path d="m42.87,10.36l0,68.95l-26.54,0c-3.13,-0.02 -4.71,-1.57 -5.15,-4.27l0.1,-59.37c0.38,-3.16 1.98,-5.1 5.05,-5.56l26.54,0.25z" fill="#003399" fill-rule="evenodd" id="path3214" stroke="#003399" stroke-width="1px"/>
   <g fill="#ffcc00" id="g3313" transform="matrix(1.6138444,0,0,1.6138444,27.337182,32.052517)">
    <use height="1052.36" id="use3315" width="744.09" x="0" xlink:href="#s" y="-6"/>
    <use height="1052.36" id="use3317" width="744.09" x="0" xlink:href="#s" y="6"/>
    <g id="l">
     <use height="1052.36" id="use3320" width="744.09" x="-6" xlink:href="#s" y="0"/>
     <use height="1052.36" id="use3322" transform="matrix(-0.809017,-0.5877853,0.5877853,-0.809017,-3,-5.1961524)" width="744.09" x="0" xlink:href="#s" y="0"/>
     <use height="1052.36" id="use3324" transform="matrix(-0.809017,0.5877853,-0.5877853,-0.809017,-5.1961524,-3)" width="744.09" x="0" xlink:href="#s" y="0"/>
     <use height="1052.36" id="use3326" transform="matrix(0.309017,0.9510565,-0.9510565,0.309017,-5.1961524,3)" width="744.09" x="0" xlink:href="#s" y="0"/>
     <use height="1052.36" id="use3328" transform="matrix(0.309017,0.9510565,-0.9510565,0.309017,-3,5.1961524)" width="744.09" x="0" xlink:href="#s" y="0"/>
    </g>
    <use height="1052.36" id="use3330" transform="scale(-1,1)" width="744.09" x="0" xlink:href="#l" y="0"/>
   </g>
   <path d="m22.94,50.67l0,3.94l2.75,0c0.69,0 1.2,-0.21 1.54,-0.62c0.34,-0.41 0.51,-0.86 0.51,-1.35c0,-0.74 -0.27,-1.28 -0.8,-1.63c-0.34,-0.23 -0.78,-0.34 -1.32,-0.34l-2.68,0zm-1.86,10.47l0,-12.23l4.44,0c0.48,0 0.94,0.05 1.37,0.15c0.44,0.1 0.9,0.34 1.38,0.71c0.37,0.28 0.68,0.68 0.94,1.18c0.25,0.5 0.38,1.08 0.38,1.74c0,0.87 -0.32,1.7 -0.98,2.49c-0.65,0.79 -1.6,1.18 -2.85,1.18l-2.82,0l0,4.78l-1.86,0zm10.21,0l0,-12.23l1.85,0l0,10.48l5.97,0l0,1.75l-7.82,0z" fill="#ffffff" id="text3367" stroke="#ffffff" stroke-miterlimit="4" stroke-width="0.43" transform="scale(0.9191116,1.0880072)"/>
   <path d="m51.16,70.57l0,-48.16l30.81,0l0,6.91l-23.5,0l0,13.72l20.03,0l0,6.51l-20.03,0l0,14.15l23.5,0l0,6.87l-30.81,0zm44.99,-41.68l0,14.61l11.04,0c2.73,0 4.78,-0.76 6.14,-2.28c1.37,-1.52 2.05,-3.3 2.05,-5.35c0,-2.45 -0.81,-4.28 -2.44,-5.49c-1.37,-0.99 -3.14,-1.49 -5.33,-1.49l-11.46,0zm-7.31,41.68l0,-48.16l18.84,0c4.12,0 7.38,1.06 9.78,3.18c1.35,1.17 2.49,2.63 3.43,4.39c0.93,1.77 1.4,3.73 1.4,5.89c0,3.1 -0.83,5.85 -2.5,8.24c-1.66,2.39 -3.95,4.08 -6.85,5.08l11.17,21.38l-8.66,0l-9.95,-20.56l-9.35,0l0,20.56l-7.31,0zm36.19,-0.03l17.59,-48.19l6.01,0l17.59,48.19l-7.67,0l-3.7,-10.88l-18.28,0l-3.84,10.88l-7.7,0zm13.69,-17.32l13.94,0c-1.01,-2.98 -1.81,-5.31 -2.39,-6.99c-0.59,-1.69 -1.09,-3.18 -1.52,-4.48c-0.43,-1.3 -0.87,-2.62 -1.31,-3.97c-0.44,-1.34 -1.02,-3.16 -1.75,-5.45c-0.77,2.38 -1.39,4.28 -1.85,5.7c-0.46,1.42 -0.91,2.79 -1.34,4.12c-0.43,1.32 -0.92,2.79 -1.49,4.42c-0.56,1.64 -1.32,3.85 -2.29,6.65l0,0zm57.89,-17.42c0,2.27 0.71,3.99 2.13,5.16c1.42,1.16 3.01,1.75 4.78,1.75c1.76,0 3.35,-0.59 4.77,-1.75c1.42,-1.17 2.13,-2.89 2.13,-5.16c0,-2.25 -0.71,-3.96 -2.13,-5.14c-1.42,-1.18 -3.01,-1.77 -4.77,-1.77c-1.77,0 -3.36,0.59 -4.78,1.77c-1.42,1.18 -2.13,2.89 -2.13,5.14l0,0zm-7.77,20.72c0,-4.69 1.9,-8.3 5.69,-10.84c-1.44,-1.28 -2.6,-2.69 -3.49,-4.24c-0.89,-1.56 -1.34,-3.39 -1.34,-5.51c0,-3.88 1.33,-7.17 3.98,-9.88c2.66,-2.71 5.94,-4.07 9.84,-4.07c3.9,0 7.17,1.36 9.83,4.07c2.65,2.71 3.98,6 3.98,9.88c0,2.12 -0.45,3.95 -1.35,5.51c-0.91,1.55 -2.05,2.96 -3.44,4.24c3.77,2.56 5.65,6.17 5.65,10.84c0,4.28 -1.45,7.75 -4.35,10.43c-2.89,2.68 -6.34,4.02 -10.32,4.02c-4.01,0 -7.46,-1.34 -10.35,-4.02c-2.89,-2.68 -4.33,-6.15 -4.33,-10.43l0,0zm6.91,-0.06c0,2.2 0.78,4.02 2.33,5.47c1.55,1.44 3.36,2.16 5.44,2.16c2.05,0 3.86,-0.72 5.43,-2.16c1.58,-1.45 2.37,-3.27 2.37,-5.47c0,-2.21 -0.79,-4.03 -2.37,-5.49c-1.57,-1.45 -3.38,-2.18 -5.43,-2.18c-2.08,0 -3.89,0.73 -5.44,2.18c-1.55,1.46 -2.33,3.28 -2.33,5.49l0,0zm27.46,-27.12l0.04,-6.93l27.4,0l0,6.91l-16.3,41.25l-7.73,0l16.33,-41.25l-19.74,0.02zm42.38,41.23l0,-41.68l-13.19,0l0,-6.48l33.68,0l0,6.48l-13.19,0l0,41.68l-7.3,0zm25.64,0l0,-48.16l7.31,0l0,41.29l23.5,0l0,6.87l-30.81,0z" fill="#000000" id="text3621" stroke-width="1px" transform="scale(1.0471084,0.955011)"/>
   <rect fill="none" height="69.19" id="rect3216" ry="5.36" stroke="#000000" stroke-miterlimit="4" stroke-width="3.09" width="335.62" x="11.07" y="10.14"/>
   <g id="g5522" transform="matrix(0.1712007,0,0,0.1712007,59.05313,-54.90141)">
    <rect fill="#73777a" height="115.69" id="rect2288" rx="10.85" ry="9.85" stroke="#757578" stroke-miterlimit="4" stroke-width="1.04" width="69.33" x="688.74" y="519.38"/>
    <path d="m758.17,561.84l0,31.19c-0.27,0 -1.83,0 -2.79,0c-1.75,-0.39 -2.43,-2.66 -4.53,-2.01c-1.94,1.25 -2.28,2.36 -4.75,2.36c-1.52,0 -2.42,-0.53 -3.04,-1.78c-0.73,-1.46 -1.02,-2.09 -3.14,-2.09c-3.03,0.36 -4.94,2.37 -8.02,2.33c-2.19,-0.41 -3.35,-1.8 -4.07,-4.07c-0.68,-1.13 -1.58,-1.4 -3.02,-1.4c-1.44,0 -1.18,0 -2.62,0c-1.44,0 -2.34,0.27 -3.02,1.4c-0.72,2.27 -1.88,3.66 -4.07,4.07c-3.08,0.04 -4.99,-1.97 -8.02,-2.33c-2.12,0 -2.41,0.63 -3.14,2.09c-0.62,1.25 -1.52,1.78 -3.03,1.78c-2.48,0 -2.82,-1.11 -4.76,-2.36c-2.09,-0.65 -2.78,1.62 -4.53,2.01c-0.95,0 -2.71,0 -2.97,0l0,-31.19c0.26,0 2.02,0 2.97,0c1.75,0.39 2.44,2.67 4.53,2.01c1.94,-1.24 2.28,-2.36 4.76,-2.36c1.52,0 2.41,0.53 3.03,1.78c0.73,1.46 1.02,2.09 3.14,2.09c3.03,-0.36 4.94,-2.37 8.02,-2.32c2.19,0.41 3.35,1.79 4.07,4.07c0.68,1.13 1.58,1.39 3.02,1.39c1.44,0 1.18,0 2.62,0c1.44,0 2.34,-0.26 3.02,-1.39c0.72,-2.28 1.88,-3.66 4.07,-4.07c3.08,-0.05 4.99,1.96 8.02,2.32c2.12,0 2.41,-0.63 3.14,-2.09c0.62,-1.25 1.52,-1.78 3.04,-1.78c2.48,0 2.81,1.12 4.75,2.36c2.1,0.66 2.78,-1.62 4.53,-2.01c0.96,0 2.52,0 2.79,0z" fill="#c8cbc0" fill-rule="evenodd" id="path3263" stroke="#73777a" stroke-width="0.77px"/>
    <g id="g4319" transform="matrix(0.7660083,0,0,0.7660083,395.14398,182.68066)">
     <g id="g4271" stroke="#73777a">
      <g id="g4253" stroke="#73777a">
       <path d="m438.43,506.69c1.05,1.71 1.26,3.55 7.57,3.6l4,0c2.31,-0.09 6.83,-5.25 12,-10l3.54,3.89c-1.69,-1.5 -3.39,-3.64 -5.08,-2.43" fill="none" fill-rule="evenodd" id="path4246" stroke="#73777a" stroke-width="1px" transform="translate(5.5279208,5.095195)"/>
       <path d="m426.14,497.89c2.42,-0.09 6.85,4.53 10.14,6.77" fill="none" fill-rule="evenodd" id="path4248" stroke="#73777a" stroke-width="1px" transform="translate(5.5279208,5.095195)"/>
      </g>
      <path d="m435,504.29l5,-4c3.28,-1.76 5.57,-0.6 7,3c0.81,3.14 -0.5,6.46 -3.54,6.89" fill="none" fill-rule="evenodd" id="path4250" stroke="#73777a" stroke-width="1px" transform="translate(5.5279208,5.095195)"/>
     </g>
     <path d="m431.67,502.99c2.41,-0.09 6.85,4.52 10.14,6.77" fill="none" fill-rule="evenodd" id="path4267" stroke="#73777a" stroke-width="1px"/>
     <path d="m416.63,509.39l-5,-4c-3.28,-1.77 -5.57,-0.6 -7,3c-0.81,3.13 0.49,6.45 3.53,6.89" fill="none" fill-rule="evenodd" id="path4269" stroke="#73777a" stroke-width="1px"/>
     <path d="m391,506.85c-1.69,-1.21 -3.38,0.92 -5.07,2.43l3.53,-3.89c5.18,4.75 9.7,9.91 12,10l4,0c6.32,-0.05 6.53,-1.89 7.58,-3.6c2.02,-3.48 4.91,-2.36 6.51,-0.43c2.97,3.19 4.05,-0.49 5.91,-1.97c1.87,-1.49 4.2,-1.49 6.07,0c1.87,1.48 2.94,5.16 5.91,1.97c1.6,-1.93 4.49,-3.05 6.52,0.43c1.05,1.71 1.25,3.55 7.57,3.6l4,0c2.3,-0.09 6.83,-5.25 12,-10l3.53,3.89c-1.69,-1.51 -3.38,-3.64 -5.07,-2.43" fill="none" fill-rule="evenodd" id="path4265" stroke="#73777a" stroke-width="1px"/>
     <path d="m425.43,502.99c-2.42,-0.09 -6.85,4.52 -10.15,6.77" fill="none" fill-rule="evenodd" id="path4309" stroke="#73777a" stroke-width="1px"/>
    </g>
    <g id="g4330" transform="matrix(0.7660083,0,0,-0.7660083,395.14398,972.4124)">
     <g id="g4332" stroke="#73777a">
      <g id="g4334" stroke="#73777a">
       <path d="m438.43,506.69c1.05,1.71 1.26,3.55 7.57,3.6l4,0c2.31,-0.09 6.83,-5.25 12,-10l3.54,3.89c-1.69,-1.5 -3.39,-3.64 -5.08,-2.43" fill="none" fill-rule="evenodd" id="path4336" stroke="#73777a" stroke-width="1px" transform="translate(5.5279208,5.095195)"/>
       <path d="m426.14,497.89c2.42,-0.09 6.85,4.53 10.14,6.77" fill="none" fill-rule="evenodd" id="path4338" stroke="#73777a" stroke-width="1px" transform="translate(5.5279208,5.095195)"/>
      </g>
      <path d="m435,504.29l5,-4c3.28,-1.76 5.57,-0.6 7,3c0.81,3.14 -0.5,6.46 -3.54,6.89" fill="none" fill-rule="evenodd" id="path4340" stroke="#73777a" stroke-width="1px" transform="translate(5.5279208,5.095195)"/>
     </g>
     <path d="m431.67,502.99c2.41,-0.09 6.85,4.52 10.14,6.77" fill="none" fill-rule="evenodd" id="path4342" stroke="#73777a" stroke-width="1px"/>
     <path d="m416.63,509.39l-5,-4c-3.28,-1.77 -5.57,-0.6 -7,3c-0.81,3.13 0.49,6.45 3.53,6.89" fill="none" fill-rule="evenodd" id="path4344" stroke="#73777a" stroke-width="1px"/>
     <path d="m391,506.85c-1.69,-1.21 -3.38,0.92 -5.07,2.43l3.53,-3.89c5.18,4.75 9.7,9.91 12,10l4,0c6.32,-0.05 6.53,-1.89 7.58,-3.6c2.02,-3.48 4.91,-2.36 6.51,-0.43c2.97,3.19 4.05,-0.49 5.91,-1.97c1.87,-1.49 4.2,-1.49 6.07,0c1.87,1.48 2.94,5.16 5.91,1.97c1.6,-1.93 4.49,-3.05 6.52,0.43c1.05,1.71 1.25,3.55 7.57,3.6l4,0c2.3,-0.09 6.83,-5.25 12,-10l3.53,3.89c-1.69,-1.51 -3.38,-3.64 -5.07,-2.43" fill="none" fill-rule="evenodd" id="path4346" stroke="#73777a" stroke-width="1px"/>
     <path d="m425.43,502.99c-2.42,-0.09 -6.85,4.52 -10.15,6.77" fill="none" fill-rule="evenodd" id="path4348" stroke="#73777a" stroke-width="1px"/>
    </g>
    <path d="m708.38,587.36l-8.99,0l0,-3.37c0,-0.69 0.09,-1.24 0.27,-1.66c0.18,-0.41 0.46,-0.74 0.84,-0.97c0.38,-0.24 0.78,-0.35 1.19,-0.35c0.38,0 0.74,0.1 1.08,0.31c0.34,0.21 0.62,0.52 0.83,0.94c0.16,-0.54 0.43,-0.96 0.81,-1.25c0.39,-0.29 0.84,-0.44 1.36,-0.44c0.42,0 0.82,0.09 1.18,0.27c0.36,0.18 0.64,0.4 0.83,0.66c0.2,0.26 0.35,0.59 0.45,0.98c0.1,0.4 0.15,0.88 0.15,1.45l0,3.43zm-5.21,-1.19l0,-1.94c0,-0.53 -0.04,-0.91 -0.11,-1.14c-0.09,-0.3 -0.24,-0.53 -0.45,-0.68c-0.2,-0.16 -0.47,-0.23 -0.78,-0.23c-0.3,0 -0.56,0.07 -0.79,0.21c-0.23,0.15 -0.38,0.35 -0.47,0.62c-0.08,0.26 -0.12,0.72 -0.12,1.36l0,1.8l2.72,0zm4.15,0l0,-2.24c0,-0.38 -0.02,-0.65 -0.04,-0.81c-0.05,-0.27 -0.14,-0.5 -0.25,-0.68c-0.11,-0.19 -0.28,-0.34 -0.5,-0.46c-0.22,-0.12 -0.47,-0.18 -0.76,-0.18c-0.33,0 -0.62,0.09 -0.87,0.26c-0.25,0.17 -0.42,0.41 -0.52,0.72c-0.1,0.3 -0.15,0.74 -0.15,1.31l0,2.08l3.09,0zm-6.75,-6.88l-1.07,0l0,-5.82l0.86,0c0.61,0.58 1.42,1.14 2.43,1.71c1.01,0.56 2.05,0.99 3.12,1.3c0.75,0.22 1.57,0.36 2.47,0.42l0,1.14c-0.71,-0.01 -1.56,-0.15 -2.56,-0.42c-1.01,-0.27 -1.97,-0.65 -2.9,-1.14c-0.93,-0.5 -1.72,-1.03 -2.35,-1.59l0,4.4zm0,-6.99l-1.07,0l0,-5.82l0.86,0c0.61,0.57 1.42,1.14 2.43,1.7c1.01,0.57 2.05,1 3.12,1.31c0.75,0.22 1.57,0.36 2.47,0.42l0,1.14c-0.71,-0.02 -1.56,-0.16 -2.56,-0.42c-1.01,-0.27 -1.97,-0.65 -2.9,-1.15c-0.93,-0.49 -1.72,-1.02 -2.35,-1.58l0,4.4z" fill="#4d4d4d" id="text4354" stroke-width="1px"/>
    <path d="m758.17,529.05l0,24.4c-0.27,0 -1.83,0 -2.79,0c-1.75,-0.39 -2.43,-2.66 -4.53,-2.01c-1.94,1.25 -2.27,2.36 -4.75,2.36c-1.52,0 -2.42,-0.53 -3.04,-1.78c-0.73,-1.46 -1.02,-2.09 -3.14,-2.09c-3.03,0.36 -4.94,2.37 -8.02,2.33c-2.19,-0.41 -3.35,-1.8 -4.07,-4.07c-0.68,-1.13 -1.58,-1.4 -3.02,-1.4c-1.44,0 -1.18,0 -2.62,0c-1.44,0 -2.34,0.27 -3.02,1.4c-0.72,2.27 -1.88,3.66 -4.07,4.07c-3.08,0.04 -4.99,-1.97 -8.02,-2.33c-2.12,0 -2.41,0.63 -3.14,2.09c-0.62,1.25 -1.51,1.78 -3.03,1.78c-2.48,0 -2.82,-1.11 -4.76,-2.36c-2.09,-0.65 -2.78,1.62 -4.53,2.01c-0.95,0 -2.71,0 -2.97,0l0,-24.57c0.24,-3.9 2.35,-5.88 3.05,-6.53c1.75,0.38 2.36,2.58 4.45,1.92c1.94,-1.24 2.28,-2.35 4.76,-2.35c1.52,0 2.41,0.53 3.03,1.77c0.73,1.46 1.02,2.09 3.14,2.09c3.03,-0.36 4.94,-2.37 8.02,-2.32c2.19,0.41 3.35,1.79 4.07,4.07c0.68,1.13 1.58,1.39 3.02,1.39c1.44,0 1.18,0 2.62,0c1.44,0 2.34,-0.26 3.02,-1.39c0.73,-2.28 1.88,-3.66 4.07,-4.07c3.08,-0.05 4.99,1.96 8.02,2.32c2.13,0 2.41,-0.63 3.14,-2.09c0.62,-1.24 1.52,-1.77 3.04,-1.77c2.48,0 2.81,1.11 4.75,2.35c2.1,0.66 2.53,-1.41 4.28,-1.8c1.95,1.6 2.89,4.04 3.04,6.58z" fill="#c8cbc0" fill-rule="evenodd" id="path4385" stroke="#73777a" stroke-width="0.77px"/>
    <g id="g4387" transform="matrix(0.7660083,0,0,0.7660083,395.14432,143.10154)">
     <g id="g4389" stroke="#73777a">
      <g id="g4391" stroke="#73777a">
       <path d="m438.43,506.69c1.05,1.71 1.26,3.55 7.57,3.6l4,0c2.31,-0.09 6.83,-5.25 12,-10l3.54,3.89c-1.69,-1.5 -3.39,-3.64 -5.08,-2.43" fill="none" fill-rule="evenodd" id="path4393" stroke="#73777a" stroke-width="1px" transform="translate(5.5279208,5.095195)"/>
       <path d="m426.14,497.89c2.42,-0.09 6.85,4.53 10.14,6.77" fill="none" fill-rule="evenodd" id="path4395" stroke="#73777a" stroke-width="1px" transform="translate(5.5279208,5.095195)"/>
      </g>
      <path d="m435,504.29l5,-4c3.28,-1.76 5.57,-0.6 7,3c0.81,3.14 -0.5,6.46 -3.54,6.89" fill="none" fill-rule="evenodd" id="path4397" stroke="#73777a" stroke-width="1px" transform="translate(5.5279208,5.095195)"/>
     </g>
     <path d="m431.67,502.99c2.41,-0.09 6.85,4.52 10.14,6.77" fill="none" fill-rule="evenodd" id="path4399" stroke="#73777a" stroke-width="1px"/>
     <path d="m416.63,509.39l-5,-4c-3.28,-1.77 -5.57,-0.6 -7,3c-0.81,3.13 0.49,6.45 3.53,6.89" fill="none" fill-rule="evenodd" id="path4401" stroke="#73777a" stroke-width="1px"/>
     <path d="m391,506.85c-1.69,-1.21 -3.38,0.92 -5.07,2.43l3.53,-3.89c5.18,4.75 9.7,9.91 12,10l4,0c6.32,-0.05 6.53,-1.89 7.58,-3.6c2.02,-3.48 4.91,-2.36 6.51,-0.43c2.97,3.19 4.05,-0.49 5.91,-1.97c1.87,-1.49 4.2,-1.49 6.07,0c1.87,1.48 2.94,5.16 5.91,1.97c1.6,-1.93 4.49,-3.05 6.52,0.43c1.05,1.71 1.25,3.55 7.57,3.6l4,0c2.3,-0.09 6.83,-5.25 12,-10l3.53,3.89c-1.69,-1.51 -3.38,-3.64 -5.07,-2.43" fill="none" fill-rule="evenodd" id="path4403" stroke="#73777a" stroke-width="1px"/>
     <path d="m425.43,502.99c-2.42,-0.09 -6.85,4.52 -10.15,6.77" fill="none" fill-rule="evenodd" id="path4405" stroke="#73777a" stroke-width="1px"/>
    </g>
    <g id="g4407" transform="matrix(0.7660083,0,0,-0.7660083,395.14432,932.83328)">
     <g id="g4409" stroke="#73777a">
      <g id="g4411" stroke="#73777a">
       <path d="m438.43,506.69c1.05,1.71 1.26,3.55 7.57,3.6l4,0c2.31,-0.09 6.83,-5.25 12,-10l3.54,3.89c-1.69,-1.5 -3.39,-3.64 -5.08,-2.43" fill="none" fill-rule="evenodd" id="path4413" stroke="#73777a" stroke-width="1px" transform="translate(5.5279208,5.095195)"/>
       <path d="m426.14,497.89c2.42,-0.09 6.85,4.53 10.14,6.77" fill="none" fill-rule="evenodd" id="path4415" stroke="#73777a" stroke-width="1px" transform="translate(5.5279208,5.095195)"/>
      </g>
      <path d="m435,504.29l5,-4c3.28,-1.76 5.57,-0.6 7,3c0.81,3.14 -0.5,6.46 -3.54,6.89" fill="none" fill-rule="evenodd" id="path4417" stroke="#73777a" stroke-width="1px" transform="translate(5.5279208,5.095195)"/>
     </g>
     <path d="m431.67,502.99c2.41,-0.09 6.85,4.52 10.14,6.77" fill="none" fill-rule="evenodd" id="path4419" stroke="#73777a" stroke-width="1px"/>
     <path d="m416.63,509.39l-5,-4c-3.28,-1.77 -5.57,-0.6 -7,3c-0.81,3.13 0.49,6.45 3.53,6.89" fill="none" fill-rule="evenodd" id="path4421" stroke="#73777a" stroke-width="1px"/>
     <path d="m391,506.85c-1.69,-1.21 -3.38,0.92 -5.07,2.43l3.53,-3.89c5.18,4.75 9.7,9.91 12,10l4,0c6.32,-0.05 6.53,-1.89 7.58,-3.6c2.02,-3.48 4.91,-2.36 6.51,-0.43c2.97,3.19 4.05,-0.49 5.91,-1.97c1.87,-1.49 4.2,-1.49 6.07,0c1.87,1.48 2.94,5.16 5.91,1.97c1.6,-1.93 4.49,-3.05 6.52,0.43c1.05,1.71 1.25,3.55 7.57,3.6l4,0c2.3,-0.09 6.83,-5.25 12,-10l3.53,3.89c-1.69,-1.51 -3.38,-3.64 -5.07,-2.43" fill="none" fill-rule="evenodd" id="path4423" stroke="#73777a" stroke-width="1px"/>
     <path d="m425.43,502.99c-2.42,-0.09 -6.85,4.52 -10.15,6.77" fill="none" fill-rule="evenodd" id="path4425" stroke="#73777a" stroke-width="1px"/>
    </g>
    <path d="m758.17,601.75l0,22.29c0.17,3.62 -1.01,6.31 -3.54,8.58c-1.76,-0.39 -1.68,-2.35 -3.78,-1.69c-1.94,1.24 -2.27,2.35 -4.75,2.35c-1.52,0 -2.42,-0.52 -3.04,-1.77c-0.73,-1.46 -1.02,-2.09 -3.14,-2.09c-3.03,0.36 -4.94,2.37 -8.02,2.32c-2.19,-0.41 -3.35,-1.79 -4.07,-4.07c-0.68,-1.13 -1.58,-1.39 -3.02,-1.39c-1.44,0 -1.18,0 -2.62,0c-1.44,0 -2.34,0.26 -3.02,1.39c-0.72,2.28 -1.88,3.66 -4.07,4.07c-3.08,0.05 -4.99,-1.96 -8.02,-2.32c-2.12,0 -2.41,0.63 -3.14,2.09c-0.62,1.25 -1.51,1.78 -3.03,1.78c-2.48,0 -2.82,-1.12 -4.76,-2.36c-2.09,-0.66 -1.99,1.44 -3.75,1.83c-3.19,-2.61 -3.8,-6 -3.75,-7.83l0,-23.18c0.26,0 2.02,0 2.97,0c1.75,0.39 2.44,2.66 4.53,2.01c1.94,-1.25 2.28,-2.36 4.76,-2.36c1.52,0 2.41,0.53 3.03,1.78c0.73,1.46 1.02,2.09 3.14,2.09c3.03,-0.36 4.94,-2.37 8.02,-2.33c2.19,0.41 3.35,1.8 4.07,4.07c0.68,1.13 1.58,1.4 3.02,1.4c1.44,0 1.18,0 2.62,0c1.44,0 2.34,-0.27 3.02,-1.4c0.73,-2.27 1.88,-3.66 4.07,-4.07c3.08,-0.04 4.99,1.97 8.02,2.33c2.13,0 2.41,-0.63 3.14,-2.09c0.62,-1.25 1.52,-1.78 3.04,-1.78c2.48,0 2.81,1.11 4.75,2.36c2.1,0.65 2.78,-1.62 4.53,-2.01c0.96,0 2.52,0 2.79,0z" fill="#c8cbc0" fill-rule="evenodd" id="path4431" stroke="#73777a" stroke-width="0.77px"/>
    <g id="g4433" transform="matrix(0.7660083,0,0,0.7660083,395.14432,222.58647)">
     <g id="g4435" stroke="#73777a">
      <g id="g4437" stroke="#73777a">
       <path d="m438.43,506.69c1.05,1.71 1.26,3.55 7.57,3.6l4,0c2.31,-0.09 6.83,-5.25 12,-10l3.54,3.89c-1.69,-1.5 -3.39,-3.64 -5.08,-2.43" fill="none" fill-rule="evenodd" id="path4439" stroke="#73777a" stroke-width="1px" transform="translate(5.5279208,5.095195)"/>
       <path d="m426.14,497.89c2.42,-0.09 6.85,4.53 10.14,6.77" fill="none" fill-rule="evenodd" id="path4441" stroke="#73777a" stroke-width="1px" transform="translate(5.5279208,5.095195)"/>
      </g>
      <path d="m435,504.29l5,-4c3.28,-1.76 5.57,-0.6 7,3c0.81,3.14 -0.5,6.46 -3.54,6.89" fill="none" fill-rule="evenodd" id="path4443" stroke="#73777a" stroke-width="1px" transform="translate(5.5279208,5.095195)"/>
     </g>
     <path d="m431.67,502.99c2.41,-0.09 6.85,4.52 10.14,6.77" fill="none" fill-rule="evenodd" id="path4445" stroke="#73777a" stroke-width="1px"/>
     <path d="m416.63,509.39l-5,-4c-3.28,-1.77 -5.57,-0.6 -7,3c-0.81,3.13 0.49,6.45 3.53,6.89" fill="none" fill-rule="evenodd" id="path4447" stroke="#73777a" stroke-width="1px"/>
     <path d="m391,506.85c-1.69,-1.21 -3.38,0.92 -5.07,2.43l3.53,-3.89c5.18,4.75 9.7,9.91 12,10l4,0c6.32,-0.05 6.53,-1.89 7.58,-3.6c2.02,-3.48 4.91,-2.36 6.51,-0.43c2.97,3.19 4.05,-0.49 5.91,-1.97c1.87,-1.49 4.2,-1.49 6.07,0c1.87,1.48 2.94,5.16 5.91,1.97c1.6,-1.93 4.49,-3.05 6.52,0.43c1.05,1.71 1.25,3.55 7.57,3.6l4,0c2.3,-0.09 6.83,-5.25 12,-10l3.53,3.89c-1.69,-1.51 -3.38,-3.64 -5.07,-2.43" fill="none" fill-rule="evenodd" id="path4449" stroke="#73777a" stroke-width="1px"/>
     <path d="m425.43,502.99c-2.42,-0.09 -6.85,4.52 -10.15,6.77" fill="none" fill-rule="evenodd" id="path4451" stroke="#73777a" stroke-width="1px"/>
    </g>
    <g id="g4453" transform="matrix(0.7660083,0,0,-0.7660083,395.14432,1012.3182)">
     <g id="g4455" stroke="#73777a">
      <g id="g4457" stroke="#73777a">
       <path d="m438.43,506.69c1.05,1.71 1.26,3.55 7.57,3.6l4,0c2.31,-0.09 6.83,-5.25 12,-10l3.54,3.89c-1.69,-1.5 -3.39,-3.64 -5.08,-2.43" fill="none" fill-rule="evenodd" id="path4459" stroke="#73777a" stroke-width="1px" transform="translate(5.5279208,5.095195)"/>
       <path d="m426.14,497.89c2.42,-0.09 6.85,4.53 10.14,6.77" fill="none" fill-rule="evenodd" id="path4461" stroke="#73777a" stroke-width="1px" transform="translate(5.5279208,5.095195)"/>
      </g>
      <path d="m435,504.29l5,-4c3.28,-1.76 5.57,-0.6 7,3c0.81,3.14 -0.5,6.46 -3.54,6.89" fill="none" fill-rule="evenodd" id="path4463" stroke="#73777a" stroke-width="1px" transform="translate(5.5279208,5.095195)"/>
     </g>
     <path d="m431.67,502.99c2.41,-0.09 6.85,4.52 10.14,6.77" fill="none" fill-rule="evenodd" id="path4465" stroke="#73777a" stroke-width="1px"/>
     <path d="m416.63,509.39l-5,-4c-3.28,-1.77 -5.57,-0.6 -7,3c-0.81,3.13 0.49,6.45 3.53,6.89" fill="none" fill-rule="evenodd" id="path4467" stroke="#73777a" stroke-width="1px"/>
     <path d="m391,506.85c-1.69,-1.21 -3.38,0.92 -5.07,2.43l3.53,-3.89c5.18,4.75 9.7,9.91 12,10l4,0c6.32,-0.05 6.53,-1.89 7.58,-3.6c2.02,-3.48 4.91,-2.36 6.51,-0.43c2.97,3.19 4.05,-0.49 5.91,-1.97c1.87,-1.49 4.2,-1.49 6.07,0c1.87,1.48 2.94,5.16 5.91,1.97c1.6,-1.93 4.49,-3.05 6.52,0.43c1.05,1.71 1.25,3.55 7.57,3.6l4,0c2.3,-0.09 6.83,-5.25 12,-10l3.53,3.89c-1.69,-1.51 -3.38,-3.64 -5.07,-2.43" fill="none" fill-rule="evenodd" id="path4469" stroke="#73777a" stroke-width="1px"/>
     <path d="m425.43,502.99c-2.42,-0.09 -6.85,4.52 -10.15,6.77" fill="none" fill-rule="evenodd" id="path4471" stroke="#73777a" stroke-width="1px"/>
    </g>
    <path d="m708.42,544.04l-2.16,0l0,3.9l-1.01,0l-5.83,-4.1l0,-0.91l5.83,0l0,-1.21l1.01,0l0,1.21l2.16,0l0,1.11zm-3.17,0l-4.05,0l4.05,2.81l0,-2.81zm1.09,-3.62l-0.1,-1.06c0.5,-0.09 0.86,-0.26 1.08,-0.52c0.23,-0.25 0.34,-0.58 0.34,-0.97c0,-0.34 -0.08,-0.64 -0.23,-0.89c-0.16,-0.26 -0.36,-0.47 -0.62,-0.63c-0.26,-0.17 -0.61,-0.3 -1.06,-0.41c-0.44,-0.11 -0.89,-0.17 -1.34,-0.17c-0.05,0 -0.13,0 -0.23,0.01c0.36,0.22 0.64,0.52 0.86,0.9c0.22,0.38 0.33,0.8 0.33,1.24c0,0.75 -0.27,1.38 -0.81,1.89c-0.54,0.52 -1.25,0.77 -2.14,0.77c-0.91,0 -1.64,-0.26 -2.2,-0.8c-0.55,-0.54 -0.83,-1.21 -0.83,-2.02c0,-0.59 0.16,-1.12 0.47,-1.61c0.32,-0.48 0.76,-0.85 1.35,-1.1c0.58,-0.25 1.42,-0.38 2.53,-0.38c1.15,0 2.06,0.13 2.74,0.38c0.68,0.25 1.2,0.62 1.56,1.11c0.35,0.49 0.53,1.07 0.53,1.73c0,0.71 -0.2,1.28 -0.59,1.73c-0.39,0.44 -0.94,0.71 -1.64,0.8l0,0zm-3.97,-4.52c-0.64,0 -1.14,0.17 -1.51,0.5c-0.37,0.34 -0.56,0.75 -0.56,1.22c0,0.49 0.2,0.92 0.6,1.28c0.4,0.37 0.92,0.55 1.56,0.55c0.57,0 1.04,-0.17 1.4,-0.52c0.35,-0.34 0.53,-0.77 0.53,-1.28c0,-0.51 -0.18,-0.93 -0.53,-1.26c-0.36,-0.33 -0.86,-0.49 -1.49,-0.49l0,0zm3.97,-2.47l-0.1,-1.06c0.5,-0.09 0.86,-0.27 1.08,-0.52c0.23,-0.25 0.34,-0.58 0.34,-0.97c0,-0.34 -0.08,-0.64 -0.23,-0.9c-0.16,-0.25 -0.36,-0.46 -0.62,-0.63c-0.26,-0.16 -0.61,-0.3 -1.06,-0.41c-0.44,-0.11 -0.89,-0.16 -1.34,-0.16c-0.05,0 -0.13,0 -0.23,0c0.36,0.22 0.64,0.53 0.86,0.91c0.22,0.38 0.33,0.79 0.33,1.24c0,0.74 -0.27,1.37 -0.81,1.89c-0.54,0.51 -1.25,0.77 -2.14,0.77c-0.91,0 -1.64,-0.27 -2.2,-0.8c-0.55,-0.54 -0.83,-1.22 -0.83,-2.03c0,-0.58 0.16,-1.11 0.47,-1.6c0.32,-0.48 0.76,-0.85 1.35,-1.1c0.58,-0.25 1.42,-0.38 2.53,-0.38c1.15,0 2.06,0.12 2.74,0.37c0.68,0.25 1.2,0.62 1.56,1.12c0.35,0.49 0.53,1.07 0.53,1.73c0,0.7 -0.2,1.28 -0.59,1.72c-0.39,0.45 -0.94,0.72 -1.64,0.81l0,0zm-3.97,-4.52c-0.64,0 -1.14,0.17 -1.51,0.5c-0.37,0.34 -0.56,0.75 -0.56,1.22c0,0.49 0.2,0.92 0.6,1.28c0.4,0.37 0.92,0.55 1.56,0.55c0.57,0 1.04,-0.18 1.4,-0.52c0.35,-0.35 0.53,-0.77 0.53,-1.28c0,-0.51 -0.18,-0.93 -0.53,-1.26c-0.36,-0.33 -0.86,-0.49 -1.49,-0.49l0,0z" fill="#4d4d4d" id="text3259" stroke-width="1px"/>
    <path d="m708.42,628.29l-9,-3.46l0,-1.28l9,-3.68l0,1.36l-2.73,1.05l0,3.76l2.73,0.98l0,1.27zm-3.7,-2.6l0,-3.05l-2.49,0.94c-0.75,0.29 -1.37,0.5 -1.86,0.64c0.58,0.12 1.15,0.28 1.72,0.49l2.63,0.98zm1.34,-6.33l-0.1,-1.16c0.57,-0.09 0.99,-0.29 1.28,-0.6c0.28,-0.31 0.42,-0.69 0.42,-1.13c0,-0.53 -0.2,-0.98 -0.6,-1.35c-0.4,-0.37 -0.93,-0.55 -1.59,-0.55c-0.63,0 -1.13,0.17 -1.49,0.53c-0.37,0.35 -0.55,0.81 -0.55,1.39c0,0.35 0.08,0.67 0.24,0.96c0.16,0.29 0.37,0.51 0.63,0.67l-0.13,1.04l-4.62,-0.87l0,-4.47l1.05,0l0,3.59l2.42,0.48c-0.38,-0.54 -0.57,-1.1 -0.57,-1.7c0,-0.78 0.28,-1.45 0.82,-1.98c0.54,-0.54 1.24,-0.81 2.1,-0.81c0.81,0 1.52,0.23 2.11,0.71c0.73,0.57 1.09,1.36 1.09,2.36c0,0.82 -0.23,1.48 -0.69,2c-0.46,0.52 -1.06,0.81 -1.82,0.89l0,0zm-4.43,-12.72l0.08,1.09c-0.43,0.1 -0.75,0.24 -0.94,0.42c-0.32,0.3 -0.47,0.67 -0.47,1.11c0,0.35 0.09,0.66 0.29,0.92c0.25,0.35 0.62,0.62 1.11,0.82c0.49,0.2 1.18,0.31 2.08,0.32c-0.41,-0.27 -0.71,-0.59 -0.9,-0.98c-0.2,-0.38 -0.3,-0.79 -0.3,-1.21c0,-0.73 0.27,-1.36 0.82,-1.88c0.54,-0.51 1.24,-0.77 2.1,-0.77c0.56,0 1.09,0.12 1.57,0.36c0.48,0.25 0.86,0.58 1.11,1c0.26,0.43 0.39,0.91 0.39,1.45c0,0.92 -0.34,1.67 -1.02,2.25c-0.67,0.58 -1.79,0.87 -3.34,0.87c-1.74,0 -3,-0.32 -3.79,-0.96c-0.69,-0.56 -1.03,-1.31 -1.03,-2.26c0,-0.71 0.2,-1.29 0.59,-1.74c0.4,-0.45 0.95,-0.72 1.65,-0.81l0,0zm3.87,4.5c0.38,0 0.75,-0.08 1.09,-0.24c0.35,-0.16 0.62,-0.39 0.8,-0.68c0.18,-0.29 0.27,-0.59 0.27,-0.91c0,-0.47 -0.19,-0.87 -0.56,-1.2c-0.38,-0.34 -0.89,-0.5 -1.54,-0.5c-0.62,0 -1.11,0.16 -1.46,0.49c-0.36,0.33 -0.54,0.75 -0.54,1.25c0,0.5 0.18,0.93 0.54,1.27c0.35,0.35 0.82,0.52 1.4,0.52l0,0z" fill="#4d4d4d" id="text4350" stroke-width="1px"/>
    <path d="m688.35,559.7l70.11,0" fill="none" fill-rule="evenodd" id="path4545" stroke="#c8cbc0" stroke-miterlimit="4" stroke-width="1.23"/>
    <path d="m688.35,556.33l70.11,0" fill="none" fill-rule="evenodd" id="path5516" stroke="#c8cbc0" stroke-miterlimit="4" stroke-width="1.23"/>
    <path d="m688.35,599.13l70.11,0" fill="none" fill-rule="evenodd" id="path5518" stroke="#c8cbc0" stroke-miterlimit="4" stroke-width="1.23"/>
    <path d="m688.35,595.76l70.11,0" fill="none" fill-rule="evenodd" id="path5520" stroke="#c8cbc0" stroke-miterlimit="4" stroke-width="1.23"/>
   </g>
  </g>
  <rect fill="#ffffff" height="52.58" id="svg_2" stroke="#ffffff" stroke-width="5" width="282.26" x="48.45" y="13.19"/>
 </g>
</svg>